<svg xmlns="http://www.w3.org/2000/svg" viewBox="0 0 100 100">
  <defs>
    <linearGradient id="blueGrad" x1="0%" y1="0%" x2="100%" y2="100%">
      <stop offset="0%" style="stop-color:#4285F4;stop-opacity:1" />
      <stop offset="100%" style="stop-color:#1967D2;stop-opacity:1" />
    </linearGradient>
  </defs>
  
  <!-- Letter "e" drawn as path to fill entire canvas -->
  <path d="M 50 10 Q 80 10 90 30 Q 100 50 90 70 Q 80 90 50 90 Q 20 90 10 70 Q 0 50 10 30 Q 20 10 50 10 M 50 25 Q 30 25 25 40 L 75 40 Q 70 25 50 25 M 25 55 L 75 55 Q 75 75 50 75 Q 25 75 25 55" fill="url(#blueGrad)"/>
  
  <!-- Small accent dots in Google colors -->
  <circle cx="90" cy="15" r="4" fill="#EA4335"/>
  <circle cx="10" cy="85" r="4" fill="#34A853"/>
  <circle cx="85" cy="85" r="3" fill="#FBBC04"/>
</svg>
